<svg width="20" height="21" viewBox="0 0 20 21" fill="none" xmlns="http://www.w3.org/2000/svg">
<path d="M18.5698 4.25L13.2187 2.10977C13.1952 2.11992 13.164 2.14258 13.121 2.19375C13.0507 2.27812 12.9647 2.43594 12.8944 2.64258C12.7577 3.05547 12.6796 3.6543 12.6796 4.25C12.6796 4.84375 12.7577 5.44531 12.8944 5.85937C12.9647 6.0625 13.0507 6.22266 13.121 6.30469C13.1679 6.35547 13.1952 6.37891 13.2187 6.39062L18.5698 4.25ZM18.5698 10.5L13.2187 8.35937C13.1952 8.37109 13.1679 8.39453 13.121 8.44531C13.0507 8.52734 12.9647 8.6875 12.8944 8.89062C12.7577 9.30469 12.6796 9.90625 12.6796 10.5C12.6796 11.0977 12.7577 11.6953 12.8944 12.1094C12.9647 12.3125 13.0507 12.4727 13.121 12.5547C13.1679 12.6055 13.1952 12.6289 13.2187 12.6406L18.5698 10.5ZM18.5698 16.75L13.2187 14.6094C13.1952 14.6211 13.1679 14.6445 13.121 14.6953C13.0507 14.7773 12.9647 14.9375 12.8944 15.1406C12.7577 15.5547 12.6796 16.1562 12.6796 16.75C12.6796 17.3437 12.7577 17.9453 12.8944 18.3594C12.9647 18.5625 13.0507 18.7227 13.121 18.8047C13.1679 18.8555 13.1952 18.8789 13.2187 18.8906L18.5698 16.75ZM12.3554 2.10156L11.6913 2.10156C11.6522 2.10156 11.621 2.10937 11.5468 2.19375C11.4765 2.27812 11.3905 2.43594 11.3202 2.64258C11.1835 3.05547 11.1054 3.6543 11.1054 4.25C11.1054 4.84375 11.1835 5.44531 11.3202 5.85937C11.3905 6.0625 11.4765 6.22266 11.5468 6.30469C11.621 6.39063 11.6522 6.39844 11.6913 6.39844L12.3554 6.39844C12.3085 6.29687 12.2655 6.19141 12.2304 6.07812C12.0546 5.55469 11.9765 4.90625 11.9765 4.25C11.9765 3.5957 12.0546 2.94453 12.2304 2.41992C12.2655 2.30781 12.3085 2.20156 12.3554 2.10156ZM12.3554 8.35156L11.6913 8.35156C11.6522 8.35156 11.621 8.35937 11.5468 8.44531C11.4765 8.52734 11.3905 8.6875 11.3202 8.89062C11.1835 9.30469 11.1054 9.90625 11.1054 10.5C11.1054 11.0977 11.1835 11.6953 11.3202 12.1094C11.3905 12.3125 11.4765 12.4727 11.5468 12.5547C11.621 12.6406 11.6522 12.6484 11.6913 12.6484L12.3554 12.6484C12.3085 12.5469 12.2655 12.4414 12.2304 12.3281C12.0546 11.8047 11.9765 11.1562 11.9765 10.5C11.9765 9.84375 12.0546 9.19531 12.2304 8.67187C12.2655 8.55859 12.3085 8.45312 12.3554 8.35156ZM12.3554 14.6016L11.6913 14.6016C11.6522 14.6016 11.621 14.6094 11.5468 14.6953C11.4765 14.7773 11.3905 14.9375 11.3202 15.1406C11.1835 15.5547 11.1054 16.1562 11.1054 16.75C11.1054 17.3437 11.1835 17.9453 11.3202 18.3594C11.3905 18.5625 11.4765 18.7227 11.5468 18.8047C11.621 18.8906 11.6522 18.8984 11.6913 18.8984L12.3554 18.8984C12.3085 18.7969 12.2655 18.6914 12.2304 18.5781C12.0546 18.0547 11.9765 17.4062 11.9765 16.75C11.9765 16.0937 12.0546 15.4453 12.2304 14.9219C12.2655 14.8086 12.3085 14.7031 12.3554 14.6016ZM10.7812 2.10156L4.59756 2.10156L3.26553 2.76797L1.96084 2.11523C1.9374 2.12695 1.91006 2.14922 1.871 2.19375C1.80069 2.27812 1.71475 2.43594 1.64444 2.64258C1.50772 3.05547 1.42959 3.6543 1.42959 4.25C1.42959 4.84375 1.50772 5.44531 1.64444 5.85937C1.71475 6.0625 1.80069 6.22266 1.871 6.30469C1.91006 6.35156 1.9374 6.37109 1.96084 6.38672L3.26553 5.73047L4.59756 6.39844L10.7812 6.39844C10.7343 6.29687 10.6913 6.19141 10.6562 6.07812C10.4804 5.55469 10.4022 4.90625 10.4022 4.25C10.4022 3.5957 10.4804 2.94453 10.6562 2.41992C10.6913 2.30781 10.7343 2.20156 10.7812 2.10156ZM10.7812 8.35156L4.59756 8.35156L3.26553 9.01953L1.96084 8.36328C1.9374 8.37891 1.91006 8.39844 1.871 8.44531C1.80069 8.52734 1.71475 8.6875 1.64444 8.89062C1.50772 9.30469 1.42959 9.90625 1.42959 10.5C1.42959 11.0977 1.50772 11.6953 1.64444 12.1094C1.71475 12.3125 1.80069 12.4727 1.871 12.5547C1.91006 12.6016 1.9374 12.6211 1.96084 12.6367L3.26553 11.9805L4.59756 12.6484L10.7812 12.6484C10.7343 12.5469 10.6913 12.4414 10.6562 12.3281C10.4804 11.8047 10.4022 11.1562 10.4022 10.5C10.4022 9.84375 10.4804 9.19531 10.6562 8.67187C10.6913 8.55859 10.7343 8.45312 10.7812 8.35156ZM10.7812 14.6016L4.59756 14.6016L3.26553 15.2695L1.96084 14.6133C1.9374 14.6289 1.91006 14.6484 1.871 14.6953C1.80069 14.7773 1.71475 14.9375 1.64444 15.1406C1.50772 15.5547 1.42959 16.1562 1.42959 16.75C1.42959 17.3437 1.50772 17.9453 1.64444 18.3594C1.71475 18.5625 1.80069 18.7227 1.871 18.8047C1.91006 18.8516 1.9374 18.8711 1.96084 18.8867L3.26553 18.2305L4.59756 18.8984L10.7812 18.8984C10.7343 18.7969 10.6913 18.6914 10.6562 18.5781C10.4804 18.0547 10.4022 17.4062 10.4022 16.75C10.4022 16.0937 10.4804 15.4453 10.6562 14.9219C10.6913 14.8086 10.7343 14.7031 10.7812 14.6016Z" fill="#3F4751"/>
</svg>
