<svg width="88" height="88" viewBox="0 0 88 88" fill="none" xmlns="http://www.w3.org/2000/svg">
<path d="M45.2187 8.59376C43.1765 8.59255 41.1152 8.76873 39.0558 9.13173C24.4109 11.7143 12.9176 23.2076 10.335 37.8526C7.75308 52.4975 14.6224 67.2289 27.501 74.6642C33.1354 77.9173 39.404 79.476 45.6275 79.3999C53.6291 79.3019 61.556 76.5012 67.9638 71.1241L62.6606 64.8046C53.9036 72.1523 41.5255 73.2351 31.6258 67.5197C21.7263 61.8042 16.4747 50.5424 18.4597 39.2851C20.4448 28.0278 29.2314 19.2411 40.4889 17.2563C49.3673 15.6908 58.2476 18.6278 64.4088 24.795L56.2033 33H78.2033V11L70.2386 18.965C63.6355 12.3685 54.6272 8.59891 45.2187 8.59376Z" fill="#3F4751"/>
<path d="M43.5838 31.4286C43.0823 31.4288 42.582 31.4597 42.1233 31.5164L43.4533 31.9511L44.9605 31.5264L44.0985 32.0137L45.7864 32.069L43.9837 32.1841L44.4248 32.4726C45.1258 32.391 45.8754 32.2171 46.6882 31.9294C46.5196 31.8448 46.2882 31.76 46.0153 31.6898C45.3578 31.5206 44.4681 31.4284 43.5839 31.4286L43.5838 31.4286ZM42.1117 31.5177C41.7658 31.5609 41.4431 31.6182 41.1653 31.6906C40.8886 31.7626 40.6561 31.85 40.4927 31.9355C40.6695 32.0054 40.8483 32.07 41.0292 32.1292L42.8988 32.027L42.1117 31.5177ZM41.0604 32.1392C41.4977 32.2805 41.9487 32.3887 42.42 32.4548L42.9094 32.1975L41.0604 32.1392ZM43.4163 32.2669L42.6531 32.4838C43.1351 32.5362 43.6388 32.5441 44.1702 32.4984L43.4163 32.2669ZM46.9764 32.9484C44.311 33.8681 42.1248 33.6752 40.2382 32.9686V48.6126C42.3025 49.429 44.5258 49.3958 46.9764 48.524C46.9782 43.3387 46.9767 37.8752 46.9764 32.9485V32.9484ZM48.5045 42.5207C48.5005 42.5207 48.4963 42.5209 48.4922 42.5208C48.5499 42.591 48.6064 42.6642 48.6622 42.7403C49.1145 43.3581 49.5101 44.1742 49.81 45.0193C49.9411 45.3883 50.0527 45.7606 50.1393 46.1252L50.3401 45.0874L50.338 45.0993C50.358 44.9818 50.3834 44.868 50.4122 44.7568C50.2435 44.1153 49.9542 43.519 49.6027 43.1168C49.269 42.7348 48.9181 42.5294 48.5047 42.5207L48.5045 42.5207ZM54.1304 42.8504C52.694 42.8543 51.6424 43.6441 51.3634 45.2808L51.3624 45.2868L51.1418 46.5446C52.0556 45.9795 53.0104 45.6206 54.0661 45.6529C55.272 45.6897 56.593 46.0655 57.5976 46.7241L57.4021 45.2331L57.4016 45.2267C57.0917 43.4947 55.6959 42.8636 54.1304 42.8503L54.1304 42.8504ZM48.0174 43.658V48.5574L49.1608 48.1715L49.1598 48.1664C49.1896 48.1601 49.1751 48.1862 49.2166 48.0875C49.2583 47.9887 49.2968 47.7744 49.2901 47.4965C49.2766 46.941 49.1029 46.1463 48.831 45.3802C48.6067 44.7482 48.3146 44.1313 48.0173 43.658H48.0174ZM39.1971 44.6049C37.6453 44.9583 36.0564 45.3202 34.8605 45.5937C34.6585 45.6399 34.5505 45.6651 34.3666 45.7071C34.5077 45.8101 34.6422 45.9231 34.7683 46.0453C35.5086 46.7632 36.0223 47.7676 36.3074 48.8299C36.5925 49.8922 36.6503 51.0167 36.3978 52.0043C36.3512 52.1867 36.2921 52.3652 36.2209 52.5374L39.1973 51.5333L39.1971 44.6049ZM32.5317 46.1366C32.519 46.1368 32.5058 46.1381 32.493 46.1385L32.4487 46.1488C32.3181 46.1794 32.1968 46.2115 32.2468 46.197L32.236 46.2001L32.2252 46.2027C32.0375 46.2486 31.9059 46.346 31.7765 46.5393C31.647 46.7328 31.5391 47.0265 31.4806 47.3901C31.3636 48.1175 31.4454 49.1067 31.7075 50.0458C31.9695 50.9846 32.4122 51.8747 32.9339 52.4384C33.404 52.9464 33.8761 53.1882 34.4336 53.1137C34.9206 52.8593 35.2235 52.3903 35.3906 51.7369C35.5828 50.9851 35.5473 50.0186 35.3035 49.1099C35.0596 48.2012 34.6086 47.355 34.0508 46.8141C33.5977 46.3747 33.1063 46.1273 32.5317 46.1367V46.1366ZM54.019 46.7109C52.7941 46.7033 51.6372 47.1173 50.8254 48.0614L50.6296 49.0727C51.5209 48.1228 52.775 47.529 54.1628 47.529C55.6832 47.529 57.0442 48.2406 57.9424 49.3539L57.7949 48.2292C56.8738 47.324 55.4943 46.7544 54.1507 46.7133C54.1068 46.712 54.0628 46.7112 54.019 46.7109L54.019 46.7109ZM32.2344 47.4794L33.3161 49.1833L34.1064 47.8954L33.7194 49.6138L35.2925 50.5536L33.8592 50.2741L34.462 51.8867L33.438 50.3481L32.6985 51.5403L33.014 49.9132L31.5562 49.0496L32.9484 49.3731L32.2344 47.4794ZM54.1627 48.4588C51.9593 48.4588 50.1828 50.2694 50.1828 52.5152C50.1828 54.7609 51.9593 56.5714 54.1627 56.5714C56.3662 56.5714 58.1428 54.7609 58.1428 52.5152C58.1428 50.2693 56.3662 48.4587 54.1627 48.4587V48.4588ZM46.9764 49.6421C44.6091 50.4161 42.3418 50.4675 40.2382 49.7399V52.1001C42.3025 52.9298 44.5257 52.908 46.9764 52.0454V49.6421ZM54.1627 51.0724C54.9445 51.0724 55.5783 51.7184 55.5783 52.5152C55.5783 53.3119 54.9445 53.9579 54.1627 53.9579C53.3809 53.9579 52.7471 53.3119 52.7471 52.5151C52.7471 51.7182 53.3809 51.0723 54.1627 51.0723V51.0724ZM47.1509 53.1055C44.6774 53.9404 42.3116 53.9897 40.1255 53.19L39.9429 53.9927C42.1921 55.1234 44.859 55.1083 47.3919 53.9803L47.1509 53.1055Z" fill="#3F4751"/>
</svg>
