<svg xmlns="http://www.w3.org/2000/svg" viewBox="2 2 96 96">
<mask id="mask" style="mask-type:alpha" maskUnits="userSpaceOnUse" x="2" y="2" width="96" height="96">
<circle cx="50" cy="50" r="48" fill="#3F4751"/>
</mask>
<g mask="url(#mask)">
<rect width="100" height="100" fill="#3F4751"/>
<path d="M38 16L26 83L43 100H100V51L65 16L57 35L38 16Z" fill="#212628"/>
<g id="bullet">
<path d="M26 76V83H48V76H46V34C46 30 44 26 44 26L40 18C38.5 15 35.5 15 34 18L30 26C30 26 28 30 28 34V76H26Z" fill="#FFD400"/>
<path d="M47 38H27V76H47V38Z" fill="#FDB811"/>
<path d="M40 18C39.32 16.63 38.25 15.75 37 15.75V83H48V76H47V38H46V34C46 30 44 26 44 26L40 18Z" fill="#00000021"/>
</g>
<use href="#bullet" transform="translate(27)"/>
</g>
</svg>