<svg width="32" height="32" viewBox="0 0 32 32" fill="none" xmlns="http://www.w3.org/2000/svg">
<path d="M27.8668 1.56934L26.9255 2.39442L27.7474 3.3065L27.7315 3.31926L28.1718 3.8175L29.4827 2.63552L28.9261 2.01443L28.5622 2.34197L27.8668 1.56935L27.8668 1.56934ZM26.1734 3.06607L16.4036 11.4393C16.4065 11.4729 16.4055 11.5037 16.4083 11.5355L16.3986 12.9656C16.3979 13.1077 16.367 13.248 16.3078 13.3772C16.2487 13.5064 16.1626 13.6215 16.0555 13.7148L13.6133 15.8433C13.4134 16.0176 13.1525 16.1053 12.8879 16.0872C12.6234 16.069 12.3768 15.9465 12.2026 15.7467L11.8571 15.3504L10.1201 16.851C10.0228 16.9361 10.0154 17.0949 10.1025 17.229L10.2543 17.4635C10.2898 17.5114 10.3106 17.5687 10.3141 17.6282C10.3176 17.6878 10.3036 17.747 10.2739 17.7987L7.60712 21.717C7.60245 21.7237 7.59706 21.7298 7.59104 21.7354L2.33006 26.6167C2.22334 26.7158 2.23559 26.9048 2.35777 27.0383L5.19608 30.1878C5.2312 30.2294 5.27542 30.2624 5.32531 30.2842C5.3752 30.3061 5.42944 30.3161 5.48384 30.3137L5.49505 30.3127C5.5303 30.3088 5.56406 30.2963 5.59337 30.2764C5.62268 30.2564 5.64664 30.2295 5.66316 30.1982L10.3098 22.806C10.3455 22.7701 10.3701 22.7246 10.3805 22.6751C10.391 22.6255 10.3869 22.574 10.3687 22.5267C10.3687 22.5267 10.0914 21.5428 10.1307 21.4766C10.1307 21.4766 11.7072 18.9292 11.7217 18.916L27.4424 4.4972L26.1733 3.06608L26.1734 3.06607ZM15.4054 11.5315L12.2505 14.2806L12.9567 15.0912L15.3988 12.9626L15.4054 11.5315ZM17.0112 15.4213L14.7684 17.4759L15.319 18.3917C15.3507 18.4441 15.3968 18.4864 15.4518 18.5134C15.5067 18.5405 15.5683 18.5513 15.6292 18.5445L15.6447 18.5431C15.7003 18.5357 15.7535 18.5159 15.8005 18.4852C15.8474 18.4544 15.8868 18.4136 15.9158 18.3656L17.1659 16.3363C17.192 16.2939 17.2089 16.2465 17.2153 16.1972C17.2218 16.1478 17.2177 16.0977 17.2034 16.05L17.0113 15.4213L17.0112 15.4213ZM13.5604 18.586L13.2164 18.9043C13.3174 19.0434 13.3709 19.2113 13.3691 19.3832C13.3673 19.555 13.3102 19.7217 13.2063 19.8587C13.1024 19.9956 12.9572 20.0954 12.7922 20.1434C12.6271 20.1914 12.451 20.1851 12.2899 20.1252L12.1656 20.3244L12.0414 20.5236C12.2293 20.6094 12.4354 20.648 12.6417 20.636C12.848 20.6239 13.0482 20.5616 13.2249 20.4544C13.4016 20.3472 13.5493 20.1984 13.6553 20.0211C13.7613 19.8437 13.8223 19.643 13.833 19.4367C13.8494 19.1293 13.7524 18.8266 13.5605 18.586L13.5604 18.586Z" fill="#3F4751"/>
</svg>
