<svg width="32" height="32" viewBox="0 0 32 32" fill="none" xmlns="http://www.w3.org/2000/svg">
<path d="M14.45 6.83751L15.375 7.76876L7.85004 15.2875L6.92504 14.3563L14.45 6.83751ZM12.85 12.0375L13.9625 12.1313L12.75 13.35L11.6313 13.2563L12.85 12.0375ZM21.0438 6.81251L22.3625 7.09376L23.3875 6.06751L24.35 7.03126C23.475 7.94376 15.2375 16.2063 15.0125 16.3938L10.1688 27.2625C10.1188 27.3688 10.1438 27.5 10.2313 27.5813L11.075 28.3688C11.1875 28.475 11.1938 28.6563 11.0813 28.7688L9.13129 30.725C9.03754 30.825 8.88129 30.8375 8.76879 30.7563L3.63129 27.1688C2.72817 26.5375 2.61504 25.2438 3.39379 24.4625L21.0438 6.81251ZM28.3563 1.1925L29.125 1.95501L27.025 4.06126L26.8938 3.93001L24.9438 5.87376L24.4188 5.34251L26.3625 3.39876L26.2563 3.29251L28.3563 1.1925ZM18.3688 14.7688L18.375 14.7625L18.3688 14.7688ZM18.3688 14.7688L19.0125 15.4125C18.7 15.7 18.2688 16.1688 18.2625 16.5125C18.3125 17.2125 18.9688 19.3 19.6125 19.5438L19.9813 19.1688C20.7125 18.4313 20.6688 18.0375 20.6188 17.65C20.5125 16.725 20.1188 14.4875 19.8938 13.2375L20.6063 12.525C20.7813 13.4875 21.3125 16.425 21.4438 17.5563C21.5125 18.15 21.5063 18.8063 20.575 19.75C19.8688 20.4625 19.3 21.0313 18.65 21.6813C18.65 21.6813 16.4875 19.9875 16.6313 18.0188C16.6688 17.5375 16.2625 17.2063 16.0313 17.15C16.7938 16.35 17.5875 15.55 18.3688 14.7688ZM23.7938 9.56876L27.0375 12.8063L26.1125 13.7375L22.8688 10.4938L23.7938 9.56876ZM13.8813 21.975L17.9 24.225L16.2063 27.2438L12.4625 25.15L13.8813 21.975Z" fill="#3F4751"/>
</svg>
