<svg width="32" height="32" viewBox="0 0 32 32" fill="none" xmlns="http://www.w3.org/2000/svg">
<path d="M7.51298 21.699L7.47948 21.6607C7.38604 22.0253 7.1832 22.3526 6.89823 22.5985C6.36704 23.063 2.83679 25.9602 1.89917 26.7287L1.89248 26.7345C1.86523 26.7585 1.84324 26.7878 1.82789 26.8207C1.81254 26.8536 1.80417 26.8893 1.8033 26.9255C1.80243 26.9618 1.80908 26.9979 1.82284 27.0314C1.8366 27.065 1.85716 27.0954 1.88323 27.1206L4.53135 29.6735C4.5521 29.6927 4.57695 29.7068 4.60401 29.7149C4.63106 29.7229 4.6596 29.7247 4.68744 29.72C4.71527 29.7154 4.74168 29.7044 4.76463 29.688C4.78758 29.6715 4.80647 29.6501 4.81985 29.6252L8.2291 23.359C8.31881 23.1943 8.42972 23.042 8.55898 22.9062L8.56448 22.9013L7.51298 21.699ZM22.2563 10.9297L16.9885 15.9339L15.2702 13.9691L21.1852 8.79634L22.2937 10.0638C22.3998 10.1853 22.4552 10.343 22.4482 10.5043C22.4413 10.6655 22.3725 10.8178 22.2563 10.9297ZM13.2395 20.4892C13.1492 20.5741 13.0429 20.6401 12.9268 20.6834C12.8106 20.7267 12.687 20.7464 12.5632 20.7413C12.5162 20.3658 12.4557 19.9086 12.4557 19.9086L13.2042 19.2541L13.4926 19.5838C13.6778 19.7956 13.5602 20.2088 13.2395 20.4892ZM21.8094 7.31315L22.1282 7.03434C22.1604 7.00611 22.2026 6.99186 22.2454 6.99472C22.2882 6.99758 22.3281 7.01732 22.3563 7.04959L22.7144 7.45909L23.0868 7.13346L23.6189 7.7419L27.6002 4.26021L27.5194 4.16771L29.6806 2.27759L30.1969 2.86784L28.0355 4.75796L27.9525 4.66296L23.9712 8.14471L24.1527 8.35221L23.2247 9.16371L21.7678 7.49771C21.7545 7.46648 21.7513 7.43185 21.7588 7.39872C21.7662 7.36559 21.7839 7.33565 21.8094 7.31315ZM10.832 24.243C10.9655 24.3011 12.6949 23.8917 12.7722 23.824C12.8006 23.7681 12.6398 21.746 12.5868 21.0235C12.8952 21.0255 13.193 20.9105 13.42 20.7018C13.8612 20.316 13.9866 19.7349 13.6992 19.4063L13.4109 19.0766L13.5764 18.9318L13.7934 19.1801C13.8181 19.2079 13.8489 19.2297 13.8834 19.2437C13.9178 19.2578 13.9551 19.2637 13.9922 19.261C14.0293 19.2584 14.0653 19.2472 14.0974 19.2284C14.1295 19.2096 14.1569 19.1836 14.1774 19.1525L14.3624 18.863L16.9697 21.8445L18.5917 19.7367L14.2942 14.8226L8.70104 19.7139L8.36054 19.3245C8.32618 19.2856 8.27778 19.2618 8.22593 19.2584C8.17409 19.2551 8.12303 19.2724 8.08392 19.3066L7.69567 19.6461C7.65647 19.6804 7.63249 19.7288 7.62901 19.7808C7.62553 19.8328 7.64283 19.884 7.6771 19.9232L9.45923 21.961C10.7427 20.8869 11.0603 21.6196 11.1785 21.8395C11.2966 22.0594 10.7741 24.2173 10.8325 24.2436L10.832 24.243Z" fill="#3F4751"/>
</svg>
