<svg width="28" height="26" viewBox="0 0 28 26" fill="none" xmlns="http://www.w3.org/2000/svg">
<path d="M12.5838 0.428589C12.0823 0.428766 11.582 0.459655 11.1233 0.516423L12.4533 0.951112L13.9605 0.526444L13.0985 1.01372L14.7864 1.06901L12.9837 1.18414L13.4248 1.47263C14.1258 1.39105 14.8754 1.21709 15.6882 0.92936C15.5196 0.844769 15.2882 0.76 15.0153 0.689792C14.3578 0.520608 13.4681 0.428412 12.5839 0.428648L12.5838 0.428589ZM11.1117 0.51772C10.7658 0.56087 10.4431 0.618227 10.1653 0.690558C9.88858 0.762594 9.65613 0.850015 9.49268 0.93555C9.66949 1.0054 9.84827 1.06995 10.0292 1.1292L11.8988 1.02698L11.1117 0.51772ZM10.0604 1.13922C10.4977 1.28052 10.9487 1.38875 11.42 1.45477L11.9094 1.19746L10.0604 1.13922ZM12.4163 1.2669L11.6531 1.48383C12.1351 1.53618 12.6388 1.54408 13.1702 1.49839L12.4163 1.2669ZM15.9764 1.94835C13.311 2.86813 11.1248 2.67519 9.23824 1.96857V17.6126C11.3025 18.429 13.5258 18.3958 15.9764 17.524C15.9782 12.3387 15.9767 6.87519 15.9764 1.94847V1.94835ZM17.5045 11.5207C17.5005 11.5207 17.4963 11.5209 17.4922 11.5208C17.5499 11.591 17.6064 11.6642 17.6622 11.7403C18.1145 12.3581 18.5101 13.1742 18.81 14.0193C18.9411 14.3883 19.0527 14.7606 19.1393 15.1252L19.3401 14.0874L19.338 14.0993C19.358 13.9818 19.3834 13.868 19.4122 13.7568C19.2435 13.1153 18.9542 12.519 18.6027 12.1168C18.269 11.7348 17.9181 11.5294 17.5047 11.5207L17.5045 11.5207ZM23.1304 11.8504C21.694 11.8543 20.6424 12.6441 20.3634 14.2808L20.3624 14.2868L20.1418 15.5446C21.0556 14.9795 22.0104 14.6206 23.0661 14.6529C24.272 14.6897 25.593 15.0655 26.5976 15.7241L26.4021 14.2331L26.4016 14.2267C26.0917 12.4947 24.6959 11.8636 23.1304 11.8503L23.1304 11.8504ZM17.0174 12.658V17.5574L18.1608 17.1715L18.1598 17.1664C18.1896 17.1601 18.1751 17.1862 18.2166 17.0875C18.2583 16.9887 18.2968 16.7744 18.2901 16.4965C18.2766 15.941 18.1029 15.1463 17.831 14.3802C17.6067 13.7482 17.3146 13.1313 17.0173 12.658H17.0174ZM8.19715 13.6049C6.64534 13.9583 5.0564 14.3202 3.86053 14.5937C3.6585 14.6399 3.55051 14.6651 3.36659 14.7071C3.50771 14.8101 3.64219 14.9231 3.76828 15.0453C4.50861 15.7632 5.02233 16.7676 5.30736 17.8299C5.5925 18.8922 5.65034 20.0167 5.39776 21.0043C5.3512 21.1867 5.29209 21.3652 5.22089 21.5374L8.19727 20.5333L8.19715 13.6049ZM1.53172 15.1366C1.51899 15.1368 1.5058 15.1381 1.49296 15.1385L1.44866 15.1488C1.31806 15.1794 1.19683 15.2115 1.2468 15.197L1.23599 15.2001L1.22517 15.2027C1.03749 15.2486 0.905903 15.346 0.77646 15.5393C0.647017 15.7328 0.539148 16.0265 0.480616 16.3901C0.36355 17.1175 0.44545 18.1067 0.707458 19.0458C0.969467 19.9846 1.41216 20.8747 1.93393 21.4384C2.40404 21.9464 2.87612 22.1882 3.43356 22.1137C3.92056 21.8593 4.22352 21.3903 4.39056 20.7369C4.58282 19.9851 4.5473 19.0186 4.30351 18.1099C4.05955 17.2012 3.60864 16.355 3.05085 15.8141C2.59768 15.3747 2.10634 15.1273 1.53172 15.1367V15.1366ZM23.019 15.7109C21.7941 15.7033 20.6372 16.1173 19.8254 17.0614L19.6296 18.0727C20.5209 17.1228 21.775 16.529 23.1628 16.529C24.6832 16.529 26.0442 17.2406 26.9424 18.3539L26.7949 17.2292C25.8738 16.324 24.4943 15.7544 23.1507 15.7133C23.1068 15.712 23.0628 15.7112 23.019 15.7109L23.019 15.7109ZM1.23437 16.4794L2.31612 18.1833L3.10637 16.8954L2.71943 18.6138L4.29252 19.5536L2.85917 19.2741L3.46196 20.8867L2.43805 19.3481L1.69846 20.5403L2.01397 18.9132L0.556211 18.0496L1.94839 18.3731L1.23437 16.4794ZM23.1627 17.4588C20.9593 17.4588 19.1828 19.2694 19.1828 21.5152C19.1828 23.7609 20.9593 25.5714 23.1627 25.5714C25.3662 25.5714 27.1428 23.7609 27.1428 21.5152C27.1428 19.2693 25.3662 17.4587 23.1627 17.4587V17.4588ZM15.9764 18.6421C13.6091 19.4161 11.3418 19.4675 9.23824 18.7399V21.1001C11.3025 21.9298 13.5257 21.908 15.9764 21.0454V18.6421ZM23.1627 20.0724C23.9445 20.0724 24.5783 20.7184 24.5783 21.5152C24.5783 22.3119 23.9445 22.9579 23.1627 22.9579C22.3809 22.9579 21.7471 22.3119 21.7471 21.5151C21.7471 20.7182 22.3809 20.0723 23.1627 20.0723V20.0724ZM16.1509 22.1055C13.6774 22.9404 11.3116 22.9897 9.12546 22.19L8.94286 22.9927C11.1921 24.1234 13.859 24.1083 16.3919 22.9803L16.1509 22.1055Z" fill="#3F4751"/>
</svg>
