<svg width="28" height="28" viewBox="0 0 28 28" fill="none" xmlns="http://www.w3.org/2000/svg">
<path d="M13.6636 25.1091L16.2786 22.4941L15.8084 22.024L13.1934 24.639L13.6636 25.1091ZM16.2786 12.6217L14.8747 11.2178L15.3222 10.7251L17.2188 12.6217L13.8398 16.0007C13.7543 15.7923 13.6395 15.5546 13.5531 15.3472L16.2786 12.6217ZM15.1588 3.21621L15.8519 3.05842L15.4265 3.48389L15.1588 3.21621ZM4.14377 14.2377L4.58451 13.797L4.84894 14.0614L4.4082 14.5022L4.14377 14.2377ZM13.2066 13.0557C13.4793 13.3166 13.8871 13.5957 14.4319 13.678C14.0899 13.9025 13.3862 13.9251 12.9219 13.9104C12.8635 13.7749 12.8109 13.6513 12.7648 13.5428L13.2066 13.0557ZM7.58145 15.0898L6.17113 13.6795L6.64124 13.2093L8.05157 14.6197L7.58145 15.0898ZM9.4619 13.2093L8.05157 11.799L8.52169 11.3289L9.93201 12.7392L9.4619 13.2093ZM6.02421 16.647L4.61388 15.2367L5.70104 14.1495L7.11136 15.5599L6.02421 16.647ZM8.52166 14.1496L7.11133 12.7393L7.58148 12.2691L8.99181 13.6794L8.52166 14.1496ZM8.63454 17.7471C8.29369 17.3827 7.27003 17.2141 6.80637 17.6778C6.20935 18.2748 6.24578 17.7771 6.33219 17.2793L18.3353 5.27622L18.8783 5.81917L11.9899 13.4068C12.1792 13.8793 12.9651 15.6748 13.5769 17.0651L14.0067 17.2229L13.7899 17.5455C13.9477 17.902 14.3076 18.7178 14.4604 19.0617L14.843 19.2367L14.6919 19.5559C15.259 20.8281 15.5146 21.3776 15.5146 21.3776L12.6646 24.2276C12.6646 24.2276 11.6297 24.7547 11.402 24.527C10.1465 23.2785 9.62469 18.8055 8.63454 17.7471ZM8.99178 10.8588L16.4548 3.39572L17.8651 4.80604L10.4021 12.2691L8.99178 10.8588Z" fill="#3F4751"/>
</svg>
