<svg xmlns="http://www.w3.org/2000/svg" width="40" height="40" viewBox="0 0 100 100"><mask id="a" style="mask-type:alpha" maskUnits="userSpaceOnUse" x="2" y="2" width="96" height="96"><circle cx="50" cy="50" r="48" fill="#3F4751"/></mask><g mask="url(#a)"><path fill="#3F4751" d="M0 0h100v100H0z"/><path d="M38 16 26 83l17 17h57V51L65 16l-8 19-19-19Z" fill="#212628"/><g id="b"><path d="M26 76v7h22v-7h-2V34c0-4-2-8-2-8l-4-8c-1.5-3-4.5-3-6 0l-4 8s-2 4-2 8v42h-2Z" fill="#FFD400"/><path d="M47 38H27v38h20V38Z" fill="#FDB811"/><path d="M40 18c-.68-1.37-1.75-2.25-3-2.25V83h11v-7h-1V38h-1v-4c0-4-2-8-2-8l-4-8Z" fill="#00000021"/></g><use href="#b" transform="translate(27)"/></g></svg>