<svg xmlns="http://www.w3.org/2000/svg" fill-rule="evenodd" clip-rule="evenodd"><defs><style>:root svg:not(:target){display:none}</style></defs>

<svg id="search" viewBox="0 0 24 24" fill="#000"><path d="M15.5 14h-.79l-.28-.27A6.471 6.471 0 0 0 16 9.5 6.5 6.5 0 1 0 9.5 16c1.61 0 3.09-.59 4.23-1.57l.27.28v.79l5 4.99L20.49 19l-4.99-5zm-6 0C7.01 14 5 11.99 5 9.5S7.01 5 9.5 5 14 7.01 14 9.5 11.99 14 9.5 14z"/></svg>

<svg id="star" viewBox="0 0 24 24" fill="#FDB811"><path d="M12 17.27 18.18 21l-1.64-7.03L22 9.24l-7.19-.61L12 2 9.19 8.63 2 9.24l5.46 4.73L5.82 21 12 17.27z"/></svg>

<svg id="favorite" viewBox="0 0 24 24" fill="#000"><path d="M16.5 3c-1.74 0-3.41.81-4.5 2.09C10.91 3.81 9.24 3 7.5 3 4.42 3 2 5.42 2 8.5c0 3.78 3.4 6.86 8.55 11.54L12 21.35l1.45-1.32C18.6 15.36 22 12.28 22 8.5 22 5.42 19.58 3 16.5 3zm-4.4 15.55-.1.1-.1-.1C7.14 14.24 4 11.39 4 8.5 4 6.5 5.5 5 7.5 5c1.54 0 3.04.99 3.57 2.36h1.87C13.46 5.99 14.96 5 16.5 5c2 0 3.5 1.5 3.5 3.5 0 2.89-3.14 5.74-7.9 10.05z"/></svg>

<svg id="cart" viewBox="0 0 24 24" fill="#000"><path d="M15.55 13c.75 0 1.41-.41 1.75-1.03l3.58-6.49A.996.996 0 0 0 20.01 4H5.21l-.94-2H1v2h2l3.6 7.59-1.35 2.44C4.52 15.37 5.48 17 7 17h12v-2H7l1.1-2h7.45zM6.16 6h12.15l-2.76 5H8.53L6.16 6zM7 18c-1.1 0-1.99.9-1.99 2S5.9 22 7 22s2-.9 2-2-.9-2-2-2zm10 0c-1.1 0-1.99.9-1.99 2s.89 2 1.99 2 2-.9 2-2-.9-2-2-2z"/></svg>

<svg id="account" viewBox="0 0 24 24" fill="#000"><path d="M12 2C6.48 2 2 6.48 2 12s4.48 10 10 10 10-4.48 10-10S17.52 2 12 2zM7.07 18.28c.43-.9 3.05-1.78 4.93-1.78s4.51.88 4.93 1.78C15.57 19.36 13.86 20 12 20s-3.57-.64-4.93-1.72zm11.29-1.45c-1.43-1.74-4.9-2.33-6.36-2.33s-4.93.59-6.36 2.33A7.95 7.95 0 0 1 4 12c0-4.41 3.59-8 8-8s8 3.59 8 8c0 1.82-.62 3.49-1.64 4.83zM12 6c-1.94 0-3.5 1.56-3.5 3.5S10.06 13 12 13s3.5-1.56 3.5-3.5S13.94 6 12 6zm0 5c-.83 0-1.5-.67-1.5-1.5S11.17 8 12 8s1.5.67 1.5 1.5S12.83 11 12 11z"/></svg>


<svg id="gun-1" viewBox="0 0 28 28" fill="none">
<path d="M13.6636 25.1091L16.2786 22.4941L15.8084 22.024L13.1934 24.639L13.6636 25.1091ZM16.2786 12.6217L14.8747 11.2178L15.3222 10.7251L17.2188 12.6217L13.8398 16.0007C13.7543 15.7923 13.6395 15.5546 13.5531 15.3472L16.2786 12.6217ZM15.1588 3.21621L15.8519 3.05842L15.4265 3.48389L15.1588 3.21621ZM4.14377 14.2377L4.58451 13.797L4.84894 14.0614L4.4082 14.5022L4.14377 14.2377ZM13.2066 13.0557C13.4793 13.3166 13.8871 13.5957 14.4319 13.678C14.0899 13.9025 13.3862 13.9251 12.9219 13.9104C12.8635 13.7749 12.8109 13.6513 12.7648 13.5428L13.2066 13.0557ZM7.58145 15.0898L6.17113 13.6795L6.64124 13.2093L8.05157 14.6197L7.58145 15.0898ZM9.4619 13.2093L8.05157 11.799L8.52169 11.3289L9.93201 12.7392L9.4619 13.2093ZM6.02421 16.647L4.61388 15.2367L5.70104 14.1495L7.11136 15.5599L6.02421 16.647ZM8.52166 14.1496L7.11133 12.7393L7.58148 12.2691L8.99181 13.6794L8.52166 14.1496ZM8.63454 17.7471C8.29369 17.3827 7.27003 17.2141 6.80637 17.6778C6.20935 18.2748 6.24578 17.7771 6.33219 17.2793L18.3353 5.27622L18.8783 5.81917L11.9899 13.4068C12.1792 13.8793 12.9651 15.6748 13.5769 17.0651L14.0067 17.2229L13.7899 17.5455C13.9477 17.902 14.3076 18.7178 14.4604 19.0617L14.843 19.2367L14.6919 19.5559C15.259 20.8281 15.5146 21.3776 15.5146 21.3776L12.6646 24.2276C12.6646 24.2276 11.6297 24.7547 11.402 24.527C10.1465 23.2785 9.62469 18.8055 8.63454 17.7471ZM8.99178 10.8588L16.4548 3.39572L17.8651 4.80604L10.4021 12.2691L8.99178 10.8588Z" fill="#3F4751"/>
</svg>


<svg id="gun-2" viewBox="0 0 32 32" fill="none">
<path d="M7.51298 21.699L7.47948 21.6607C7.38604 22.0253 7.1832 22.3526 6.89823 22.5985C6.36704 23.063 2.83679 25.9602 1.89917 26.7287L1.89248 26.7345C1.86523 26.7585 1.84324 26.7878 1.82789 26.8207C1.81254 26.8536 1.80417 26.8893 1.8033 26.9255C1.80243 26.9618 1.80908 26.9979 1.82284 27.0314C1.8366 27.065 1.85716 27.0954 1.88323 27.1206L4.53135 29.6735C4.5521 29.6927 4.57695 29.7068 4.60401 29.7149C4.63106 29.7229 4.6596 29.7247 4.68744 29.72C4.71527 29.7154 4.74168 29.7044 4.76463 29.688C4.78758 29.6715 4.80647 29.6501 4.81985 29.6252L8.2291 23.359C8.31881 23.1943 8.42972 23.042 8.55898 22.9062L8.56448 22.9013L7.51298 21.699ZM22.2563 10.9297L16.9885 15.9339L15.2702 13.9691L21.1852 8.79634L22.2937 10.0638C22.3998 10.1853 22.4552 10.343 22.4482 10.5043C22.4413 10.6655 22.3725 10.8178 22.2563 10.9297ZM13.2395 20.4892C13.1492 20.5741 13.0429 20.6401 12.9268 20.6834C12.8106 20.7267 12.687 20.7464 12.5632 20.7413C12.5162 20.3658 12.4557 19.9086 12.4557 19.9086L13.2042 19.2541L13.4926 19.5838C13.6778 19.7956 13.5602 20.2088 13.2395 20.4892ZM21.8094 7.31315L22.1282 7.03434C22.1604 7.00611 22.2026 6.99186 22.2454 6.99472C22.2882 6.99758 22.3281 7.01732 22.3563 7.04959L22.7144 7.45909L23.0868 7.13346L23.6189 7.7419L27.6002 4.26021L27.5194 4.16771L29.6806 2.27759L30.1969 2.86784L28.0355 4.75796L27.9525 4.66296L23.9712 8.14471L24.1527 8.35221L23.2247 9.16371L21.7678 7.49771C21.7545 7.46648 21.7513 7.43185 21.7588 7.39872C21.7662 7.36559 21.7839 7.33565 21.8094 7.31315ZM10.832 24.243C10.9655 24.3011 12.6949 23.8917 12.7722 23.824C12.8006 23.7681 12.6398 21.746 12.5868 21.0235C12.8952 21.0255 13.193 20.9105 13.42 20.7018C13.8612 20.316 13.9866 19.7349 13.6992 19.4063L13.4109 19.0766L13.5764 18.9318L13.7934 19.1801C13.8181 19.2079 13.8489 19.2297 13.8834 19.2437C13.9178 19.2578 13.9551 19.2637 13.9922 19.261C14.0293 19.2584 14.0653 19.2472 14.0974 19.2284C14.1295 19.2096 14.1569 19.1836 14.1774 19.1525L14.3624 18.863L16.9697 21.8445L18.5917 19.7367L14.2942 14.8226L8.70104 19.7139L8.36054 19.3245C8.32618 19.2856 8.27778 19.2618 8.22593 19.2584C8.17409 19.2551 8.12303 19.2724 8.08392 19.3066L7.69567 19.6461C7.65647 19.6804 7.63249 19.7288 7.62901 19.7808C7.62553 19.8328 7.64283 19.884 7.6771 19.9232L9.45923 21.961C10.7427 20.8869 11.0603 21.6196 11.1785 21.8395C11.2966 22.0594 10.7741 24.2173 10.8325 24.2436L10.832 24.243Z" fill="#3F4751"/>
</svg>


<svg id="gun-3" viewBox="0 0 32 32" fill="none">
<path d="M27.8668 1.56934L26.9255 2.39442L27.7474 3.3065L27.7315 3.31926L28.1718 3.8175L29.4827 2.63552L28.9261 2.01443L28.5622 2.34197L27.8668 1.56935L27.8668 1.56934ZM26.1734 3.06607L16.4036 11.4393C16.4065 11.4729 16.4055 11.5037 16.4083 11.5355L16.3986 12.9656C16.3979 13.1077 16.367 13.248 16.3078 13.3772C16.2487 13.5064 16.1626 13.6215 16.0555 13.7148L13.6133 15.8433C13.4134 16.0176 13.1525 16.1053 12.8879 16.0872C12.6234 16.069 12.3768 15.9465 12.2026 15.7467L11.8571 15.3504L10.1201 16.851C10.0228 16.9361 10.0154 17.0949 10.1025 17.229L10.2543 17.4635C10.2898 17.5114 10.3106 17.5687 10.3141 17.6282C10.3176 17.6878 10.3036 17.747 10.2739 17.7987L7.60712 21.717C7.60245 21.7237 7.59706 21.7298 7.59104 21.7354L2.33006 26.6167C2.22334 26.7158 2.23559 26.9048 2.35777 27.0383L5.19608 30.1878C5.2312 30.2294 5.27542 30.2624 5.32531 30.2842C5.3752 30.3061 5.42944 30.3161 5.48384 30.3137L5.49505 30.3127C5.5303 30.3088 5.56406 30.2963 5.59337 30.2764C5.62268 30.2564 5.64664 30.2295 5.66316 30.1982L10.3098 22.806C10.3455 22.7701 10.3701 22.7246 10.3805 22.6751C10.391 22.6255 10.3869 22.574 10.3687 22.5267C10.3687 22.5267 10.0914 21.5428 10.1307 21.4766C10.1307 21.4766 11.7072 18.9292 11.7217 18.916L27.4424 4.4972L26.1733 3.06608L26.1734 3.06607ZM15.4054 11.5315L12.2505 14.2806L12.9567 15.0912L15.3988 12.9626L15.4054 11.5315ZM17.0112 15.4213L14.7684 17.4759L15.319 18.3917C15.3507 18.4441 15.3968 18.4864 15.4518 18.5134C15.5067 18.5405 15.5683 18.5513 15.6292 18.5445L15.6447 18.5431C15.7003 18.5357 15.7535 18.5159 15.8005 18.4852C15.8474 18.4544 15.8868 18.4136 15.9158 18.3656L17.1659 16.3363C17.192 16.2939 17.2089 16.2465 17.2153 16.1972C17.2218 16.1478 17.2177 16.0977 17.2034 16.05L17.0113 15.4213L17.0112 15.4213ZM13.5604 18.586L13.2164 18.9043C13.3174 19.0434 13.3709 19.2113 13.3691 19.3832C13.3673 19.555 13.3102 19.7217 13.2063 19.8587C13.1024 19.9956 12.9572 20.0954 12.7922 20.1434C12.6271 20.1914 12.451 20.1851 12.2899 20.1252L12.1656 20.3244L12.0414 20.5236C12.2293 20.6094 12.4354 20.648 12.6417 20.636C12.848 20.6239 13.0482 20.5616 13.2249 20.4544C13.4016 20.3472 13.5493 20.1984 13.6553 20.0211C13.7613 19.8437 13.8223 19.643 13.833 19.4367C13.8494 19.1293 13.7524 18.8266 13.5605 18.586L13.5604 18.586Z" fill="#3F4751"/>
</svg>


<svg id="gun-4" viewBox="0 0 32 32" fill="none">
<path d="M14.45 6.83751L15.375 7.76876L7.85004 15.2875L6.92504 14.3563L14.45 6.83751ZM12.85 12.0375L13.9625 12.1313L12.75 13.35L11.6313 13.2563L12.85 12.0375ZM21.0438 6.81251L22.3625 7.09376L23.3875 6.06751L24.35 7.03126C23.475 7.94376 15.2375 16.2063 15.0125 16.3938L10.1688 27.2625C10.1188 27.3688 10.1438 27.5 10.2313 27.5813L11.075 28.3688C11.1875 28.475 11.1938 28.6563 11.0813 28.7688L9.13129 30.725C9.03754 30.825 8.88129 30.8375 8.76879 30.7563L3.63129 27.1688C2.72817 26.5375 2.61504 25.2438 3.39379 24.4625L21.0438 6.81251ZM28.3563 1.1925L29.125 1.95501L27.025 4.06126L26.8938 3.93001L24.9438 5.87376L24.4188 5.34251L26.3625 3.39876L26.2563 3.29251L28.3563 1.1925ZM18.3688 14.7688L18.375 14.7625L18.3688 14.7688ZM18.3688 14.7688L19.0125 15.4125C18.7 15.7 18.2688 16.1688 18.2625 16.5125C18.3125 17.2125 18.9688 19.3 19.6125 19.5438L19.9813 19.1688C20.7125 18.4313 20.6688 18.0375 20.6188 17.65C20.5125 16.725 20.1188 14.4875 19.8938 13.2375L20.6063 12.525C20.7813 13.4875 21.3125 16.425 21.4438 17.5563C21.5125 18.15 21.5063 18.8063 20.575 19.75C19.8688 20.4625 19.3 21.0313 18.65 21.6813C18.65 21.6813 16.4875 19.9875 16.6313 18.0188C16.6688 17.5375 16.2625 17.2063 16.0313 17.15C16.7938 16.35 17.5875 15.55 18.3688 14.7688ZM23.7938 9.56876L27.0375 12.8063L26.1125 13.7375L22.8688 10.4938L23.7938 9.56876ZM13.8813 21.975L17.9 24.225L16.2063 27.2438L12.4625 25.15L13.8813 21.975Z" fill="#3F4751"/>
</svg>


<svg id="bullets-3" viewBox="0 0 20 21" fill="none">
<path d="M18.5698 4.25L13.2187 2.10977C13.1952 2.11992 13.164 2.14258 13.121 2.19375C13.0507 2.27812 12.9647 2.43594 12.8944 2.64258C12.7577 3.05547 12.6796 3.6543 12.6796 4.25C12.6796 4.84375 12.7577 5.44531 12.8944 5.85937C12.9647 6.0625 13.0507 6.22266 13.121 6.30469C13.1679 6.35547 13.1952 6.37891 13.2187 6.39062L18.5698 4.25ZM18.5698 10.5L13.2187 8.35937C13.1952 8.37109 13.1679 8.39453 13.121 8.44531C13.0507 8.52734 12.9647 8.6875 12.8944 8.89062C12.7577 9.30469 12.6796 9.90625 12.6796 10.5C12.6796 11.0977 12.7577 11.6953 12.8944 12.1094C12.9647 12.3125 13.0507 12.4727 13.121 12.5547C13.1679 12.6055 13.1952 12.6289 13.2187 12.6406L18.5698 10.5ZM18.5698 16.75L13.2187 14.6094C13.1952 14.6211 13.1679 14.6445 13.121 14.6953C13.0507 14.7773 12.9647 14.9375 12.8944 15.1406C12.7577 15.5547 12.6796 16.1562 12.6796 16.75C12.6796 17.3437 12.7577 17.9453 12.8944 18.3594C12.9647 18.5625 13.0507 18.7227 13.121 18.8047C13.1679 18.8555 13.1952 18.8789 13.2187 18.8906L18.5698 16.75ZM12.3554 2.10156L11.6913 2.10156C11.6522 2.10156 11.621 2.10937 11.5468 2.19375C11.4765 2.27812 11.3905 2.43594 11.3202 2.64258C11.1835 3.05547 11.1054 3.6543 11.1054 4.25C11.1054 4.84375 11.1835 5.44531 11.3202 5.85937C11.3905 6.0625 11.4765 6.22266 11.5468 6.30469C11.621 6.39063 11.6522 6.39844 11.6913 6.39844L12.3554 6.39844C12.3085 6.29687 12.2655 6.19141 12.2304 6.07812C12.0546 5.55469 11.9765 4.90625 11.9765 4.25C11.9765 3.5957 12.0546 2.94453 12.2304 2.41992C12.2655 2.30781 12.3085 2.20156 12.3554 2.10156ZM12.3554 8.35156L11.6913 8.35156C11.6522 8.35156 11.621 8.35937 11.5468 8.44531C11.4765 8.52734 11.3905 8.6875 11.3202 8.89062C11.1835 9.30469 11.1054 9.90625 11.1054 10.5C11.1054 11.0977 11.1835 11.6953 11.3202 12.1094C11.3905 12.3125 11.4765 12.4727 11.5468 12.5547C11.621 12.6406 11.6522 12.6484 11.6913 12.6484L12.3554 12.6484C12.3085 12.5469 12.2655 12.4414 12.2304 12.3281C12.0546 11.8047 11.9765 11.1562 11.9765 10.5C11.9765 9.84375 12.0546 9.19531 12.2304 8.67187C12.2655 8.55859 12.3085 8.45312 12.3554 8.35156ZM12.3554 14.6016L11.6913 14.6016C11.6522 14.6016 11.621 14.6094 11.5468 14.6953C11.4765 14.7773 11.3905 14.9375 11.3202 15.1406C11.1835 15.5547 11.1054 16.1562 11.1054 16.75C11.1054 17.3437 11.1835 17.9453 11.3202 18.3594C11.3905 18.5625 11.4765 18.7227 11.5468 18.8047C11.621 18.8906 11.6522 18.8984 11.6913 18.8984L12.3554 18.8984C12.3085 18.7969 12.2655 18.6914 12.2304 18.5781C12.0546 18.0547 11.9765 17.4062 11.9765 16.75C11.9765 16.0937 12.0546 15.4453 12.2304 14.9219C12.2655 14.8086 12.3085 14.7031 12.3554 14.6016ZM10.7812 2.10156L4.59756 2.10156L3.26553 2.76797L1.96084 2.11523C1.9374 2.12695 1.91006 2.14922 1.871 2.19375C1.80069 2.27812 1.71475 2.43594 1.64444 2.64258C1.50772 3.05547 1.42959 3.6543 1.42959 4.25C1.42959 4.84375 1.50772 5.44531 1.64444 5.85937C1.71475 6.0625 1.80069 6.22266 1.871 6.30469C1.91006 6.35156 1.9374 6.37109 1.96084 6.38672L3.26553 5.73047L4.59756 6.39844L10.7812 6.39844C10.7343 6.29687 10.6913 6.19141 10.6562 6.07812C10.4804 5.55469 10.4022 4.90625 10.4022 4.25C10.4022 3.5957 10.4804 2.94453 10.6562 2.41992C10.6913 2.30781 10.7343 2.20156 10.7812 2.10156ZM10.7812 8.35156L4.59756 8.35156L3.26553 9.01953L1.96084 8.36328C1.9374 8.37891 1.91006 8.39844 1.871 8.44531C1.80069 8.52734 1.71475 8.6875 1.64444 8.89062C1.50772 9.30469 1.42959 9.90625 1.42959 10.5C1.42959 11.0977 1.50772 11.6953 1.64444 12.1094C1.71475 12.3125 1.80069 12.4727 1.871 12.5547C1.91006 12.6016 1.9374 12.6211 1.96084 12.6367L3.26553 11.9805L4.59756 12.6484L10.7812 12.6484C10.7343 12.5469 10.6913 12.4414 10.6562 12.3281C10.4804 11.8047 10.4022 11.1562 10.4022 10.5C10.4022 9.84375 10.4804 9.19531 10.6562 8.67187C10.6913 8.55859 10.7343 8.45312 10.7812 8.35156ZM10.7812 14.6016L4.59756 14.6016L3.26553 15.2695L1.96084 14.6133C1.9374 14.6289 1.91006 14.6484 1.871 14.6953C1.80069 14.7773 1.71475 14.9375 1.64444 15.1406C1.50772 15.5547 1.42959 16.1562 1.42959 16.75C1.42959 17.3437 1.50772 17.9453 1.64444 18.3594C1.71475 18.5625 1.80069 18.7227 1.871 18.8047C1.91006 18.8516 1.9374 18.8711 1.96084 18.8867L3.26553 18.2305L4.59756 18.8984L10.7812 18.8984C10.7343 18.7969 10.6913 18.6914 10.6562 18.5781C10.4804 18.0547 10.4022 17.4062 10.4022 16.75C10.4022 16.0937 10.4804 15.4453 10.6562 14.9219C10.6913 14.8086 10.7343 14.7031 10.7812 14.6016Z" fill="#3F4751"/>
</svg>


<svg id="clockwise-rotation" viewBox="0 0 88 88" fill="none">
<path d="M45.2187 8.59376C43.1765 8.59255 41.1152 8.76873 39.0558 9.13173C24.4109 11.7143 12.9176 23.2076 10.335 37.8526C7.75308 52.4975 14.6224 67.2289 27.501 74.6642C33.1354 77.9173 39.404 79.476 45.6275 79.3999C53.6291 79.3019 61.556 76.5012 67.9638 71.1241L62.6606 64.8046C53.9036 72.1523 41.5255 73.2351 31.6258 67.5197C21.7263 61.8042 16.4747 50.5424 18.4597 39.2851C20.4448 28.0278 29.2314 19.2411 40.4889 17.2563C49.3673 15.6908 58.2476 18.6278 64.4088 24.795L56.2033 33H78.2033V11L70.2386 18.965C63.6355 12.3685 54.6272 8.59891 45.2187 8.59376Z" fill="#3F4751"/>
<path d="M43.5838 31.4286C43.0823 31.4288 42.582 31.4597 42.1233 31.5164L43.4533 31.9511L44.9605 31.5264L44.0985 32.0137L45.7864 32.069L43.9837 32.1841L44.4248 32.4726C45.1258 32.391 45.8754 32.2171 46.6882 31.9294C46.5196 31.8448 46.2882 31.76 46.0153 31.6898C45.3578 31.5206 44.4681 31.4284 43.5839 31.4286L43.5838 31.4286ZM42.1117 31.5177C41.7658 31.5609 41.4431 31.6182 41.1653 31.6906C40.8886 31.7626 40.6561 31.85 40.4927 31.9355C40.6695 32.0054 40.8483 32.07 41.0292 32.1292L42.8988 32.027L42.1117 31.5177ZM41.0604 32.1392C41.4977 32.2805 41.9487 32.3887 42.42 32.4548L42.9094 32.1975L41.0604 32.1392ZM43.4163 32.2669L42.6531 32.4838C43.1351 32.5362 43.6388 32.5441 44.1702 32.4984L43.4163 32.2669ZM46.9764 32.9484C44.311 33.8681 42.1248 33.6752 40.2382 32.9686V48.6126C42.3025 49.429 44.5258 49.3958 46.9764 48.524C46.9782 43.3387 46.9767 37.8752 46.9764 32.9485V32.9484ZM48.5045 42.5207C48.5005 42.5207 48.4963 42.5209 48.4922 42.5208C48.5499 42.591 48.6064 42.6642 48.6622 42.7403C49.1145 43.3581 49.5101 44.1742 49.81 45.0193C49.9411 45.3883 50.0527 45.7606 50.1393 46.1252L50.3401 45.0874L50.338 45.0993C50.358 44.9818 50.3834 44.868 50.4122 44.7568C50.2435 44.1153 49.9542 43.519 49.6027 43.1168C49.269 42.7348 48.9181 42.5294 48.5047 42.5207L48.5045 42.5207ZM54.1304 42.8504C52.694 42.8543 51.6424 43.6441 51.3634 45.2808L51.3624 45.2868L51.1418 46.5446C52.0556 45.9795 53.0104 45.6206 54.0661 45.6529C55.272 45.6897 56.593 46.0655 57.5976 46.7241L57.4021 45.2331L57.4016 45.2267C57.0917 43.4947 55.6959 42.8636 54.1304 42.8503L54.1304 42.8504ZM48.0174 43.658V48.5574L49.1608 48.1715L49.1598 48.1664C49.1896 48.1601 49.1751 48.1862 49.2166 48.0875C49.2583 47.9887 49.2968 47.7744 49.2901 47.4965C49.2766 46.941 49.1029 46.1463 48.831 45.3802C48.6067 44.7482 48.3146 44.1313 48.0173 43.658H48.0174ZM39.1971 44.6049C37.6453 44.9583 36.0564 45.3202 34.8605 45.5937C34.6585 45.6399 34.5505 45.6651 34.3666 45.7071C34.5077 45.8101 34.6422 45.9231 34.7683 46.0453C35.5086 46.7632 36.0223 47.7676 36.3074 48.8299C36.5925 49.8922 36.6503 51.0167 36.3978 52.0043C36.3512 52.1867 36.2921 52.3652 36.2209 52.5374L39.1973 51.5333L39.1971 44.6049ZM32.5317 46.1366C32.519 46.1368 32.5058 46.1381 32.493 46.1385L32.4487 46.1488C32.3181 46.1794 32.1968 46.2115 32.2468 46.197L32.236 46.2001L32.2252 46.2027C32.0375 46.2486 31.9059 46.346 31.7765 46.5393C31.647 46.7328 31.5391 47.0265 31.4806 47.3901C31.3636 48.1175 31.4454 49.1067 31.7075 50.0458C31.9695 50.9846 32.4122 51.8747 32.9339 52.4384C33.404 52.9464 33.8761 53.1882 34.4336 53.1137C34.9206 52.8593 35.2235 52.3903 35.3906 51.7369C35.5828 50.9851 35.5473 50.0186 35.3035 49.1099C35.0596 48.2012 34.6086 47.355 34.0508 46.8141C33.5977 46.3747 33.1063 46.1273 32.5317 46.1367V46.1366ZM54.019 46.7109C52.7941 46.7033 51.6372 47.1173 50.8254 48.0614L50.6296 49.0727C51.5209 48.1228 52.775 47.529 54.1628 47.529C55.6832 47.529 57.0442 48.2406 57.9424 49.3539L57.7949 48.2292C56.8738 47.324 55.4943 46.7544 54.1507 46.7133C54.1068 46.712 54.0628 46.7112 54.019 46.7109L54.019 46.7109ZM32.2344 47.4794L33.3161 49.1833L34.1064 47.8954L33.7194 49.6138L35.2925 50.5536L33.8592 50.2741L34.462 51.8867L33.438 50.3481L32.6985 51.5403L33.014 49.9132L31.5562 49.0496L32.9484 49.3731L32.2344 47.4794ZM54.1627 48.4588C51.9593 48.4588 50.1828 50.2694 50.1828 52.5152C50.1828 54.7609 51.9593 56.5714 54.1627 56.5714C56.3662 56.5714 58.1428 54.7609 58.1428 52.5152C58.1428 50.2693 56.3662 48.4587 54.1627 48.4587V48.4588ZM46.9764 49.6421C44.6091 50.4161 42.3418 50.4675 40.2382 49.7399V52.1001C42.3025 52.9298 44.5257 52.908 46.9764 52.0454V49.6421ZM54.1627 51.0724C54.9445 51.0724 55.5783 51.7184 55.5783 52.5152C55.5783 53.3119 54.9445 53.9579 54.1627 53.9579C53.3809 53.9579 52.7471 53.3119 52.7471 52.5151C52.7471 51.7182 53.3809 51.0723 54.1627 51.0723V51.0724ZM47.1509 53.1055C44.6774 53.9404 42.3116 53.9897 40.1255 53.19L39.9429 53.9927C42.1921 55.1234 44.859 55.1083 47.3919 53.9803L47.1509 53.1055Z" fill="#3F4751"/>
</svg>


<svg id="favorite-border-black-24dp" viewBox="0 0 24 24" fill="#000">
	<path d="M16.5 3c-1.74 0-3.41.81-4.5 2.09C10.91 3.81 9.24 3 7.5 3 4.42 3 2 5.42 2 8.5c0 3.78 3.4 6.86 8.55 11.54L12 21.35l1.45-1.32C18.6 15.36 22 12.28 22 8.5 22 5.42 19.58 3 16.5 3zm-4.4 15.55l-.1.1-.1-.1C7.14 14.24 4 11.39 4 8.5 4 6.5 5.5 5 7.5 5c1.54 0 3.04.99 3.57 2.36h1.87C13.46 5.99 14.96 5 16.5 5c2 0 3.5 1.5 3.5 3.5 0 2.89-3.14 5.74-7.9 10.05z"/>
</svg>



</svg>
