<svg xmlns="http://www.w3.org/2000/svg" fill-rule="evenodd" clip-rule="evenodd"><defs><style>:root svg:not(:target){display:none}</style></defs><svg id="search" viewBox="0 0 24 24" fill="#000"><path d="M15.5 14h-.79l-.28-.27A6.471 6.471 0 0 0 16 9.5 6.5 6.5 0 1 0 9.5 16c1.61 0 3.09-.59 4.23-1.57l.27.28v.79l5 4.99L20.49 19l-4.99-5zm-6 0C7.01 14 5 11.99 5 9.5S7.01 5 9.5 5 14 7.01 14 9.5 11.99 14 9.5 14z"/></svg><svg id="star" viewBox="0 0 24 24" fill="#FDB811"><path d="M12 17.27 18.18 21l-1.64-7.03L22 9.24l-7.19-.61L12 2 9.19 8.63 2 9.24l5.46 4.73L5.82 21 12 17.27z"/></svg><svg id="favorite" viewBox="0 0 24 24" fill="#000"><path d="M16.5 3c-1.74 0-3.41.81-4.5 2.09C10.91 3.81 9.24 3 7.5 3 4.42 3 2 5.42 2 8.5c0 3.78 3.4 6.86 8.55 11.54L12 21.35l1.45-1.32C18.6 15.36 22 12.28 22 8.5 22 5.42 19.58 3 16.5 3zm-4.4 15.55-.1.1-.1-.1C7.14 14.24 4 11.39 4 8.5 4 6.5 5.5 5 7.5 5c1.54 0 3.04.99 3.57 2.36h1.87C13.46 5.99 14.96 5 16.5 5c2 0 3.5 1.5 3.5 3.5 0 2.89-3.14 5.74-7.9 10.05z"/></svg><svg id="cart" viewBox="0 0 24 24" fill="#000"><path d="M15.55 13c.75 0 1.41-.41 1.75-1.03l3.58-6.49A.996.996 0 0 0 20.01 4H5.21l-.94-2H1v2h2l3.6 7.59-1.35 2.44C4.52 15.37 5.48 17 7 17h12v-2H7l1.1-2h7.45zM6.16 6h12.15l-2.76 5H8.53L6.16 6zM7 18c-1.1 0-1.99.9-1.99 2S5.9 22 7 22s2-.9 2-2-.9-2-2-2zm10 0c-1.1 0-1.99.9-1.99 2s.89 2 1.99 2 2-.9 2-2-.9-2-2-2z"/></svg><svg id="account" viewBox="0 0 24 24" fill="#000"><path d="M12 2C6.48 2 2 6.48 2 12s4.48 10 10 10 10-4.48 10-10S17.52 2 12 2zM7.07 18.28c.43-.9 3.05-1.78 4.93-1.78s4.51.88 4.93 1.78C15.57 19.36 13.86 20 12 20s-3.57-.64-4.93-1.72zm11.29-1.45c-1.43-1.74-4.9-2.33-6.36-2.33s-4.93.59-6.36 2.33A7.95 7.95 0 0 1 4 12c0-4.41 3.59-8 8-8s8 3.59 8 8c0 1.82-.62 3.49-1.64 4.83zM12 6c-1.94 0-3.5 1.56-3.5 3.5S10.06 13 12 13s3.5-1.56 3.5-3.5S13.94 6 12 6zm0 5c-.83 0-1.5-.67-1.5-1.5S11.17 8 12 8s1.5.67 1.5 1.5S12.83 11 12 11z"/></svg></svg>