<svg xmlns="http://www.w3.org/2000/svg" fill-rule="evenodd" clip-rule="evenodd"><defs><style>:root svg:not(:target){display:none}</style></defs>

<svg id="search" viewBox="0 0 24 24" fill="#000"><path d="M15.5 14h-.79l-.28-.27A6.471 6.471 0 0 0 16 9.5 6.5 6.5 0 1 0 9.5 16c1.61 0 3.09-.59 4.23-1.57l.27.28v.79l5 4.99L20.49 19l-4.99-5zm-6 0C7.01 14 5 11.99 5 9.5S7.01 5 9.5 5 14 7.01 14 9.5 11.99 14 9.5 14z"/></svg>

<svg id="star" viewBox="0 0 24 24" fill="#FDB811"><path d="M12 17.27 18.18 21l-1.64-7.03L22 9.24l-7.19-.61L12 2 9.19 8.63 2 9.24l5.46 4.73L5.82 21 12 17.27z"/></svg>

<svg id="favorite" viewBox="0 0 24 24" fill="#000"><path d="M16.5 3c-1.74 0-3.41.81-4.5 2.09C10.91 3.81 9.24 3 7.5 3 4.42 3 2 5.42 2 8.5c0 3.78 3.4 6.86 8.55 11.54L12 21.35l1.45-1.32C18.6 15.36 22 12.28 22 8.5 22 5.42 19.58 3 16.5 3zm-4.4 15.55-.1.1-.1-.1C7.14 14.24 4 11.39 4 8.5 4 6.5 5.5 5 7.5 5c1.54 0 3.04.99 3.57 2.36h1.87C13.46 5.99 14.96 5 16.5 5c2 0 3.5 1.5 3.5 3.5 0 2.89-3.14 5.74-7.9 10.05z"/></svg>

<svg id="cart" viewBox="0 0 24 24" fill="#000"><path d="M15.55 13c.75 0 1.41-.41 1.75-1.03l3.58-6.49A.996.996 0 0 0 20.01 4H5.21l-.94-2H1v2h2l3.6 7.59-1.35 2.44C4.52 15.37 5.48 17 7 17h12v-2H7l1.1-2h7.45zM6.16 6h12.15l-2.76 5H8.53L6.16 6zM7 18c-1.1 0-1.99.9-1.99 2S5.9 22 7 22s2-.9 2-2-.9-2-2-2zm10 0c-1.1 0-1.99.9-1.99 2s.89 2 1.99 2 2-.9 2-2-.9-2-2-2z"/></svg>

<svg id="account" viewBox="0 0 24 24" fill="#000"><path d="M12 2C6.48 2 2 6.48 2 12s4.48 10 10 10 10-4.48 10-10S17.52 2 12 2zM7.07 18.28c.43-.9 3.05-1.78 4.93-1.78s4.51.88 4.93 1.78C15.57 19.36 13.86 20 12 20s-3.57-.64-4.93-1.72zm11.29-1.45c-1.43-1.74-4.9-2.33-6.36-2.33s-4.93.59-6.36 2.33A7.95 7.95 0 0 1 4 12c0-4.41 3.59-8 8-8s8 3.59 8 8c0 1.82-.62 3.49-1.64 4.83zM12 6c-1.94 0-3.5 1.56-3.5 3.5S10.06 13 12 13s3.5-1.56 3.5-3.5S13.94 6 12 6zm0 5c-.83 0-1.5-.67-1.5-1.5S11.17 8 12 8s1.5.67 1.5 1.5S12.83 11 12 11z"/></svg>


<svg id="gun-1" viewBox="0 0 28 28" fill="none">
<path d="M13.6636 25.1091L16.2786 22.4941L15.8084 22.024L13.1934 24.639L13.6636 25.1091ZM16.2786 12.6217L14.8747 11.2178L15.3222 10.7251L17.2188 12.6217L13.8398 16.0007C13.7543 15.7923 13.6395 15.5546 13.5531 15.3472L16.2786 12.6217ZM15.1588 3.21621L15.8519 3.05842L15.4265 3.48389L15.1588 3.21621ZM4.14377 14.2377L4.58451 13.797L4.84894 14.0614L4.4082 14.5022L4.14377 14.2377ZM13.2066 13.0557C13.4793 13.3166 13.8871 13.5957 14.4319 13.678C14.0899 13.9025 13.3862 13.9251 12.9219 13.9104C12.8635 13.7749 12.8109 13.6513 12.7648 13.5428L13.2066 13.0557ZM7.58145 15.0898L6.17113 13.6795L6.64124 13.2093L8.05157 14.6197L7.58145 15.0898ZM9.4619 13.2093L8.05157 11.799L8.52169 11.3289L9.93201 12.7392L9.4619 13.2093ZM6.02421 16.647L4.61388 15.2367L5.70104 14.1495L7.11136 15.5599L6.02421 16.647ZM8.52166 14.1496L7.11133 12.7393L7.58148 12.2691L8.99181 13.6794L8.52166 14.1496ZM8.63454 17.7471C8.29369 17.3827 7.27003 17.2141 6.80637 17.6778C6.20935 18.2748 6.24578 17.7771 6.33219 17.2793L18.3353 5.27622L18.8783 5.81917L11.9899 13.4068C12.1792 13.8793 12.9651 15.6748 13.5769 17.0651L14.0067 17.2229L13.7899 17.5455C13.9477 17.902 14.3076 18.7178 14.4604 19.0617L14.843 19.2367L14.6919 19.5559C15.259 20.8281 15.5146 21.3776 15.5146 21.3776L12.6646 24.2276C12.6646 24.2276 11.6297 24.7547 11.402 24.527C10.1465 23.2785 9.62469 18.8055 8.63454 17.7471ZM8.99178 10.8588L16.4548 3.39572L17.8651 4.80604L10.4021 12.2691L8.99178 10.8588Z" fill="#3F4751"/>
</svg>


<svg id="gun-2" viewBox="0 0 32 32" fill="none">
<path d="M7.51298 21.699L7.47948 21.6607C7.38604 22.0253 7.1832 22.3526 6.89823 22.5985C6.36704 23.063 2.83679 25.9602 1.89917 26.7287L1.89248 26.7345C1.86523 26.7585 1.84324 26.7878 1.82789 26.8207C1.81254 26.8536 1.80417 26.8893 1.8033 26.9255C1.80243 26.9618 1.80908 26.9979 1.82284 27.0314C1.8366 27.065 1.85716 27.0954 1.88323 27.1206L4.53135 29.6735C4.5521 29.6927 4.57695 29.7068 4.60401 29.7149C4.63106 29.7229 4.6596 29.7247 4.68744 29.72C4.71527 29.7154 4.74168 29.7044 4.76463 29.688C4.78758 29.6715 4.80647 29.6501 4.81985 29.6252L8.2291 23.359C8.31881 23.1943 8.42972 23.042 8.55898 22.9062L8.56448 22.9013L7.51298 21.699ZM22.2563 10.9297L16.9885 15.9339L15.2702 13.9691L21.1852 8.79634L22.2937 10.0638C22.3998 10.1853 22.4552 10.343 22.4482 10.5043C22.4413 10.6655 22.3725 10.8178 22.2563 10.9297ZM13.2395 20.4892C13.1492 20.5741 13.0429 20.6401 12.9268 20.6834C12.8106 20.7267 12.687 20.7464 12.5632 20.7413C12.5162 20.3658 12.4557 19.9086 12.4557 19.9086L13.2042 19.2541L13.4926 19.5838C13.6778 19.7956 13.5602 20.2088 13.2395 20.4892ZM21.8094 7.31315L22.1282 7.03434C22.1604 7.00611 22.2026 6.99186 22.2454 6.99472C22.2882 6.99758 22.3281 7.01732 22.3563 7.04959L22.7144 7.45909L23.0868 7.13346L23.6189 7.7419L27.6002 4.26021L27.5194 4.16771L29.6806 2.27759L30.1969 2.86784L28.0355 4.75796L27.9525 4.66296L23.9712 8.14471L24.1527 8.35221L23.2247 9.16371L21.7678 7.49771C21.7545 7.46648 21.7513 7.43185 21.7588 7.39872C21.7662 7.36559 21.7839 7.33565 21.8094 7.31315ZM10.832 24.243C10.9655 24.3011 12.6949 23.8917 12.7722 23.824C12.8006 23.7681 12.6398 21.746 12.5868 21.0235C12.8952 21.0255 13.193 20.9105 13.42 20.7018C13.8612 20.316 13.9866 19.7349 13.6992 19.4063L13.4109 19.0766L13.5764 18.9318L13.7934 19.1801C13.8181 19.2079 13.8489 19.2297 13.8834 19.2437C13.9178 19.2578 13.9551 19.2637 13.9922 19.261C14.0293 19.2584 14.0653 19.2472 14.0974 19.2284C14.1295 19.2096 14.1569 19.1836 14.1774 19.1525L14.3624 18.863L16.9697 21.8445L18.5917 19.7367L14.2942 14.8226L8.70104 19.7139L8.36054 19.3245C8.32618 19.2856 8.27778 19.2618 8.22593 19.2584C8.17409 19.2551 8.12303 19.2724 8.08392 19.3066L7.69567 19.6461C7.65647 19.6804 7.63249 19.7288 7.62901 19.7808C7.62553 19.8328 7.64283 19.884 7.6771 19.9232L9.45923 21.961C10.7427 20.8869 11.0603 21.6196 11.1785 21.8395C11.2966 22.0594 10.7741 24.2173 10.8325 24.2436L10.832 24.243Z" fill="#3F4751"/>
</svg>


<svg id="gun-3" viewBox="0 0 32 32" fill="none">
<path d="M27.8668 1.56934L26.9255 2.39442L27.7474 3.3065L27.7315 3.31926L28.1718 3.8175L29.4827 2.63552L28.9261 2.01443L28.5622 2.34197L27.8668 1.56935L27.8668 1.56934ZM26.1734 3.06607L16.4036 11.4393C16.4065 11.4729 16.4055 11.5037 16.4083 11.5355L16.3986 12.9656C16.3979 13.1077 16.367 13.248 16.3078 13.3772C16.2487 13.5064 16.1626 13.6215 16.0555 13.7148L13.6133 15.8433C13.4134 16.0176 13.1525 16.1053 12.8879 16.0872C12.6234 16.069 12.3768 15.9465 12.2026 15.7467L11.8571 15.3504L10.1201 16.851C10.0228 16.9361 10.0154 17.0949 10.1025 17.229L10.2543 17.4635C10.2898 17.5114 10.3106 17.5687 10.3141 17.6282C10.3176 17.6878 10.3036 17.747 10.2739 17.7987L7.60712 21.717C7.60245 21.7237 7.59706 21.7298 7.59104 21.7354L2.33006 26.6167C2.22334 26.7158 2.23559 26.9048 2.35777 27.0383L5.19608 30.1878C5.2312 30.2294 5.27542 30.2624 5.32531 30.2842C5.3752 30.3061 5.42944 30.3161 5.48384 30.3137L5.49505 30.3127C5.5303 30.3088 5.56406 30.2963 5.59337 30.2764C5.62268 30.2564 5.64664 30.2295 5.66316 30.1982L10.3098 22.806C10.3455 22.7701 10.3701 22.7246 10.3805 22.6751C10.391 22.6255 10.3869 22.574 10.3687 22.5267C10.3687 22.5267 10.0914 21.5428 10.1307 21.4766C10.1307 21.4766 11.7072 18.9292 11.7217 18.916L27.4424 4.4972L26.1733 3.06608L26.1734 3.06607ZM15.4054 11.5315L12.2505 14.2806L12.9567 15.0912L15.3988 12.9626L15.4054 11.5315ZM17.0112 15.4213L14.7684 17.4759L15.319 18.3917C15.3507 18.4441 15.3968 18.4864 15.4518 18.5134C15.5067 18.5405 15.5683 18.5513 15.6292 18.5445L15.6447 18.5431C15.7003 18.5357 15.7535 18.5159 15.8005 18.4852C15.8474 18.4544 15.8868 18.4136 15.9158 18.3656L17.1659 16.3363C17.192 16.2939 17.2089 16.2465 17.2153 16.1972C17.2218 16.1478 17.2177 16.0977 17.2034 16.05L17.0113 15.4213L17.0112 15.4213ZM13.5604 18.586L13.2164 18.9043C13.3174 19.0434 13.3709 19.2113 13.3691 19.3832C13.3673 19.555 13.3102 19.7217 13.2063 19.8587C13.1024 19.9956 12.9572 20.0954 12.7922 20.1434C12.6271 20.1914 12.451 20.1851 12.2899 20.1252L12.1656 20.3244L12.0414 20.5236C12.2293 20.6094 12.4354 20.648 12.6417 20.636C12.848 20.6239 13.0482 20.5616 13.2249 20.4544C13.4016 20.3472 13.5493 20.1984 13.6553 20.0211C13.7613 19.8437 13.8223 19.643 13.833 19.4367C13.8494 19.1293 13.7524 18.8266 13.5605 18.586L13.5604 18.586Z" fill="#3F4751"/>
</svg>


<svg id="gun-4" viewBox="0 0 32 32" fill="none">
<path d="M14.45 6.83751L15.375 7.76876L7.85004 15.2875L6.92504 14.3563L14.45 6.83751ZM12.85 12.0375L13.9625 12.1313L12.75 13.35L11.6313 13.2563L12.85 12.0375ZM21.0438 6.81251L22.3625 7.09376L23.3875 6.06751L24.35 7.03126C23.475 7.94376 15.2375 16.2063 15.0125 16.3938L10.1688 27.2625C10.1188 27.3688 10.1438 27.5 10.2313 27.5813L11.075 28.3688C11.1875 28.475 11.1938 28.6563 11.0813 28.7688L9.13129 30.725C9.03754 30.825 8.88129 30.8375 8.76879 30.7563L3.63129 27.1688C2.72817 26.5375 2.61504 25.2438 3.39379 24.4625L21.0438 6.81251ZM28.3563 1.1925L29.125 1.95501L27.025 4.06126L26.8938 3.93001L24.9438 5.87376L24.4188 5.34251L26.3625 3.39876L26.2563 3.29251L28.3563 1.1925ZM18.3688 14.7688L18.375 14.7625L18.3688 14.7688ZM18.3688 14.7688L19.0125 15.4125C18.7 15.7 18.2688 16.1688 18.2625 16.5125C18.3125 17.2125 18.9688 19.3 19.6125 19.5438L19.9813 19.1688C20.7125 18.4313 20.6688 18.0375 20.6188 17.65C20.5125 16.725 20.1188 14.4875 19.8938 13.2375L20.6063 12.525C20.7813 13.4875 21.3125 16.425 21.4438 17.5563C21.5125 18.15 21.5063 18.8063 20.575 19.75C19.8688 20.4625 19.3 21.0313 18.65 21.6813C18.65 21.6813 16.4875 19.9875 16.6313 18.0188C16.6688 17.5375 16.2625 17.2063 16.0313 17.15C16.7938 16.35 17.5875 15.55 18.3688 14.7688ZM23.7938 9.56876L27.0375 12.8063L26.1125 13.7375L22.8688 10.4938L23.7938 9.56876ZM13.8813 21.975L17.9 24.225L16.2063 27.2438L12.4625 25.15L13.8813 21.975Z" fill="#3F4751"/>
</svg>




</svg>
